# Blender v2.79 (sub 0) OBJ File: 'doorhandle.blend'
# www.blender.org
mtllib doorhandle.mtl
o Cube
v 0.200968 0.485179 0.543864
v 0.382683 0.923879 -0.767423
v 0.102452 0.515063 0.543864
v 0.195090 0.980785 -0.767423
v 0.000000 0.525154 0.543864
v 0.000000 1.000000 -0.767423
v 0.000000 0.491233 -0.253501
v 0.095835 0.481795 -0.253501
v 0.555570 0.831469 -0.767423
v 0.291760 0.436649 0.543865
v 0.707107 0.707106 -0.767423
v 0.371340 0.371340 0.543865
v 0.831470 0.555570 -0.767423
v 0.436649 0.291760 0.543865
v 0.923880 0.382683 -0.767423
v 0.485179 0.200967 0.543865
v 0.980785 0.195090 -0.767423
v 0.515063 0.102452 0.543865
v 1.000000 -0.000000 -0.767423
v 0.525154 -0.000000 0.543865
v 0.980785 -0.195091 -0.767423
v 0.515063 -0.102452 0.543864
v 0.923880 -0.382684 -0.767423
v 0.485179 -0.200968 0.543865
v 0.831470 -0.555571 -0.767423
v 0.436649 -0.291760 0.543865
v 0.707107 -0.707107 -0.767423
v 0.371340 -0.371340 0.543865
v 0.555570 -0.831470 -0.767423
v 0.291760 -0.436649 0.543865
v 0.382683 -0.923880 -0.767423
v 0.200968 -0.485179 0.543865
v 0.195090 -0.980786 -0.767423
v 0.102452 -0.515063 0.543865
v -0.000000 -1.000000 -0.767423
v -0.000000 -0.525154 0.543865
v -0.195091 -0.980786 -0.767423
v -0.102453 -0.515063 0.543865
v -0.382684 -0.923880 -0.767423
v -0.200968 -0.485179 0.543865
v -0.555571 -0.831470 -0.767423
v -0.291760 -0.436649 0.543865
v -0.707107 -0.707107 -0.767423
v -0.371340 -0.371340 0.543865
v -0.831470 -0.555570 -0.767423
v -0.436649 -0.291759 0.543865
v -0.923880 -0.382683 -0.767423
v -0.485179 -0.200967 0.543865
v -0.980785 -0.195090 -0.767423
v -0.515063 -0.102452 0.543865
v -1.000000 0.000001 -0.767423
v -0.525154 0.000000 0.543865
v -0.980785 0.195091 -0.767423
v -0.515063 0.102453 0.543864
v -0.923879 0.382684 -0.767423
v -0.485178 0.200968 0.543865
v -0.831469 0.555571 -0.767423
v -0.436649 0.291760 0.543865
v -0.707106 0.707107 -0.767423
v -0.371339 0.371340 0.543864
v -0.555569 0.831470 -0.767423
v -0.291759 0.436650 0.543864
v -0.382682 0.923880 -0.767423
v -0.200967 0.485179 0.543864
v -0.195089 0.980785 -0.767423
v -0.102452 0.515063 0.543865
v 0.187987 0.453840 -0.253501
v 0.272915 0.408446 -0.253501
v 0.347355 0.347354 -0.253501
v 0.408446 0.272915 -0.253501
v 0.453841 0.187987 -0.253501
v 0.481795 0.095835 -0.253501
v 0.491234 -0.000000 -0.253501
v 0.481795 -0.095835 -0.253501
v 0.453841 -0.187987 -0.253501
v 0.408446 -0.272915 -0.253501
v 0.347355 -0.347355 -0.253501
v 0.272915 -0.408446 -0.253501
v 0.187987 -0.453841 -0.253501
v 0.095835 -0.481795 -0.253501
v -0.000000 -0.491234 -0.253501
v -0.095835 -0.481795 -0.253501
v -0.187987 -0.453841 -0.253501
v -0.272915 -0.408446 -0.253501
v -0.347355 -0.347355 -0.253501
v -0.408446 -0.272915 -0.253501
v -0.453841 -0.187987 -0.253501
v -0.481795 -0.095835 -0.253501
v -0.491234 0.000000 -0.253501
v -0.481795 0.095835 -0.253501
v -0.453840 0.187987 -0.253501
v -0.408445 0.272915 -0.253501
v -0.347354 0.347355 -0.253501
v -0.272914 0.408446 -0.253501
v -0.187986 0.453841 -0.253501
v -0.095834 0.481795 -0.253501
v -0.437779 0.655184 0.518183
v 0.000000 0.787982 0.518183
v -0.301547 0.728001 0.518183
v -0.153727 0.772841 0.518183
v -0.557187 0.557188 0.518183
v -0.655183 0.437780 0.518183
v -0.728000 0.301548 0.518183
v -0.772841 0.153728 0.518183
v -0.787982 0.000001 0.518183
v -0.772842 -0.153727 0.518183
v -0.728001 -0.301547 0.518183
v -0.655184 -0.437779 0.518183
v -0.557188 -0.557187 0.518183
v -0.437780 -0.655183 0.518183
v -0.301548 -0.728001 0.518183
v -0.153728 -0.772842 0.518183
v -0.000000 -0.787983 0.518183
v 0.153728 -0.772842 0.518183
v 0.301548 -0.728001 0.518183
v 0.437780 -0.655184 0.518183
v 0.557188 -0.557188 0.518183
v 0.655183 -0.437780 0.518183
v 0.728001 -0.301548 0.518183
v 0.772842 -0.153728 0.518183
v 0.787982 -0.000000 0.518183
v 0.772841 0.153728 0.518183
v 0.728001 0.301548 0.518183
v 0.655183 0.437779 0.518183
v 0.557188 0.557187 0.518183
v 0.437780 0.655183 0.518183
v 0.301548 0.728001 0.518183
v 0.153728 0.772841 0.518183
v 0.195090 0.980785 -0.603751
v 0.382683 0.923879 -0.603751
v 0.555570 0.831469 -0.603751
v 0.707107 0.707106 -0.603750
v 0.831470 0.555570 -0.603750
v 0.923880 0.382683 -0.603750
v 0.980785 0.195090 -0.603750
v 1.000000 -0.000000 -0.603750
v 0.980785 -0.195091 -0.603750
v 0.923880 -0.382684 -0.603750
v 0.831470 -0.555571 -0.603750
v 0.707107 -0.707107 -0.603750
v 0.555570 -0.831470 -0.603750
v 0.382683 -0.923880 -0.603750
v 0.195090 -0.980786 -0.603750
v -0.000000 -1.000000 -0.603750
v -0.195091 -0.980786 -0.603750
v -0.382684 -0.923880 -0.603750
v -0.555571 -0.831470 -0.603750
v -0.707107 -0.707107 -0.603750
v -0.831470 -0.555570 -0.603750
v -0.923880 -0.382683 -0.603750
v -0.980785 -0.195090 -0.603750
v -1.000000 0.000001 -0.603750
v -0.980785 0.195091 -0.603750
v -0.923879 0.382684 -0.603750
v -0.831469 0.555571 -0.603750
v -0.707106 0.707107 -0.603750
v -0.555569 0.831470 -0.603751
v 0.000000 1.000000 -0.603751
v -0.382682 0.923880 -0.603751
v -0.195089 0.980785 -0.603751
v 0.000000 0.648430 0.650519
v -0.360248 0.539151 0.650519
v -0.248143 0.599072 0.650519
v -0.126501 0.635971 0.650519
v -0.458509 0.458510 0.650519
v -0.539150 0.360249 0.650519
v -0.599071 0.248144 0.650519
v -0.635971 0.126503 0.650519
v -0.648430 0.000000 0.650519
v -0.635971 -0.126502 0.650519
v -0.599072 -0.248143 0.650519
v -0.539150 -0.360248 0.650519
v -0.458510 -0.458509 0.650519
v -0.360249 -0.539150 0.650519
v -0.248144 -0.599072 0.650519
v -0.126503 -0.635971 0.650519
v -0.000000 -0.648431 0.650519
v 0.126502 -0.635971 0.650519
v 0.248144 -0.599072 0.650519
v 0.360249 -0.539150 0.650519
v 0.458510 -0.458510 0.650519
v 0.539150 -0.360249 0.650519
v 0.599072 -0.248144 0.650519
v 0.635971 -0.126503 0.650519
v 0.648431 -0.000000 0.650519
v 0.635971 0.126502 0.650519
v 0.599072 0.248143 0.650519
v 0.539150 0.360249 0.650519
v 0.458510 0.458509 0.650519
v 0.360249 0.539150 0.650519
v 0.248144 0.599072 0.650519
v 0.126503 0.635971 0.650519
v -0.275173 0.411827 -0.083667
v -0.189542 0.457597 -0.083667
v -0.096627 0.485782 -0.083667
v -0.350229 0.350230 -0.083667
v -0.411826 0.275174 -0.083667
v -0.457597 0.189543 -0.083667
v -0.485782 0.096628 -0.083667
v -0.495299 0.000000 -0.083667
v -0.485782 -0.096628 -0.083667
v -0.457597 -0.189543 -0.083667
v -0.411827 -0.275173 -0.083667
v -0.350230 -0.350230 -0.083667
v -0.275174 -0.411826 -0.083667
v -0.189543 -0.457597 -0.083667
v -0.096628 -0.485782 -0.083667
v -0.000000 -0.495300 -0.083667
v 0.096628 -0.485782 -0.083667
v 0.189543 -0.457597 -0.083667
v 0.275174 -0.411827 -0.083667
v 0.350230 -0.350230 -0.083667
v 0.411826 -0.275174 -0.083667
v 0.457597 -0.189543 -0.083667
v 0.485782 -0.096628 -0.083667
v 0.495299 -0.000000 -0.083667
v 0.485782 0.096628 -0.083667
v 0.457597 0.189543 -0.083667
v 0.411826 0.275173 -0.083667
v 0.350230 0.350229 -0.083667
v 0.275174 0.411826 -0.083667
v 0.189543 0.457597 -0.083667
v 0.096628 0.485782 -0.083667
v 0.000000 0.495299 -0.083667
vn 0.5710 0.6958 -0.4356
vn 0.0558 0.5662 0.8224
vn -0.1905 -0.6278 0.7547
vn -0.0643 -0.6529 0.7547
vn 0.4243 0.7938 -0.4356
vn 0.1651 0.5444 0.8224
vn 0.3609 0.4398 0.8224
vn 0.6958 0.5710 -0.4356
vn -0.3093 -0.5786 0.7547
vn 0.4398 0.3609 0.8224
vn 0.7938 0.4243 -0.4356
vn -0.4162 -0.5072 0.7547
vn 0.5017 0.2682 0.8224
vn 0.8614 0.2613 -0.4356
vn -0.5072 -0.4162 0.7547
vn 0.5444 0.1651 0.8224
vn 0.8958 0.0882 -0.4356
vn -0.5786 -0.3093 0.7547
vn 0.5662 0.0558 0.8224
vn 0.8958 -0.0882 -0.4356
vn -0.6278 -0.1905 0.7547
vn 0.5662 -0.0558 0.8224
vn 0.8614 -0.2613 -0.4356
vn -0.6529 -0.0643 0.7547
vn 0.5444 -0.1651 0.8224
vn 0.7938 -0.4243 -0.4356
vn -0.6529 0.0643 0.7547
vn 0.5017 -0.2682 0.8224
vn 0.6958 -0.5710 -0.4356
vn -0.6278 0.1905 0.7547
vn 0.4398 -0.3609 0.8224
vn 0.5710 -0.6958 -0.4356
vn -0.5786 0.3093 0.7547
vn 0.3609 -0.4398 0.8224
vn 0.4243 -0.7938 -0.4356
vn -0.5072 0.4162 0.7547
vn 0.2682 -0.5017 0.8224
vn 0.2613 -0.8614 -0.4356
vn -0.4162 0.5072 0.7547
vn 0.1651 -0.5444 0.8224
vn 0.0882 -0.8958 -0.4356
vn -0.3093 0.5786 0.7547
vn 0.0558 -0.5662 0.8224
vn -0.0882 -0.8958 -0.4356
vn -0.1905 0.6278 0.7547
vn -0.0558 -0.5662 0.8224
vn -0.2613 -0.8614 -0.4356
vn -0.0643 0.6529 0.7547
vn -0.1651 -0.5444 0.8224
vn -0.4243 -0.7938 -0.4356
vn 0.0643 0.6529 0.7547
vn -0.2682 -0.5017 0.8224
vn -0.5710 -0.6958 -0.4356
vn 0.1905 0.6278 0.7547
vn -0.3609 -0.4398 0.8224
vn -0.6958 -0.5710 -0.4356
vn 0.3093 0.5786 0.7547
vn -0.4398 -0.3609 0.8224
vn -0.7938 -0.4243 -0.4356
vn 0.4162 0.5072 0.7547
vn -0.5017 -0.2682 0.8224
vn -0.8614 -0.2613 -0.4356
vn 0.5072 0.4162 0.7547
vn -0.5444 -0.1651 0.8224
vn -0.8958 -0.0882 -0.4356
vn 0.5786 0.3093 0.7547
vn -0.5662 -0.0558 0.8224
vn -0.8958 0.0882 -0.4356
vn 0.6278 0.1905 0.7547
vn -0.5662 0.0558 0.8224
vn -0.8614 0.2613 -0.4356
vn 0.6529 0.0643 0.7547
vn -0.5444 0.1651 0.8224
vn -0.7938 0.4243 -0.4356
vn 0.6529 -0.0643 0.7547
vn -0.5017 0.2682 0.8224
vn -0.6958 0.5710 -0.4356
vn 0.6278 -0.1905 0.7547
vn -0.4398 0.3609 0.8224
vn -0.5710 0.6958 -0.4356
vn 0.5786 -0.3093 0.7547
vn -0.3609 0.4398 0.8224
vn -0.4243 0.7938 -0.4356
vn 0.5072 -0.4162 0.7547
vn -0.2682 0.5017 0.8224
vn -0.2613 0.8614 -0.4356
vn 0.4162 -0.5072 0.7547
vn -0.1651 0.5444 0.8224
vn -0.0882 0.8958 -0.4356
vn 0.3093 -0.5786 0.7547
vn -0.0558 0.5662 0.8224
vn -0.0000 -0.0000 -1.0000
vn 0.1904 -0.6278 0.7547
vn 0.2682 0.5017 0.8224
vn 0.0882 0.8958 -0.4356
vn 0.0643 -0.6529 0.7547
vn -0.0000 0.0000 1.0000
vn 0.2613 0.8614 -0.4356
vn 0.4714 0.8819 0.0000
vn -0.0980 0.9952 0.0000
vn -0.2903 0.9569 0.0000
vn -0.4714 0.8819 0.0000
vn -0.6344 0.7730 0.0000
vn -0.7730 0.6344 0.0000
vn -0.8819 0.4714 0.0000
vn -0.9569 0.2903 0.0000
vn -0.9952 0.0980 -0.0000
vn -0.9952 -0.0980 0.0000
vn -0.9569 -0.2903 0.0000
vn -0.8819 -0.4714 0.0000
vn -0.7730 -0.6344 0.0000
vn -0.6344 -0.7730 0.0000
vn -0.4714 -0.8819 0.0000
vn -0.2903 -0.9569 0.0000
vn -0.0980 -0.9952 0.0000
vn 0.0980 -0.9952 0.0000
vn 0.2903 -0.9569 0.0000
vn 0.4714 -0.8819 0.0000
vn 0.6344 -0.7730 0.0000
vn 0.7730 -0.6344 0.0000
vn 0.8819 -0.4714 0.0000
vn 0.9569 -0.2903 0.0000
vn 0.9952 -0.0980 0.0000
vn 0.9952 0.0980 -0.0000
vn 0.9569 0.2903 0.0000
vn 0.8819 0.4714 0.0000
vn 0.7730 0.6344 0.0000
vn 0.6344 0.7730 0.0000
vn 0.2903 0.9569 0.0000
vn 0.0980 0.9952 0.0000
vn -0.0676 0.6865 0.7240
vn -0.2003 0.6601 0.7240
vn -0.3252 0.6084 0.7240
vn -0.4376 0.5333 0.7240
vn -0.5333 0.4376 0.7240
vn -0.6084 0.3252 0.7240
vn -0.6601 0.2003 0.7240
vn -0.6865 0.0676 0.7240
vn -0.6865 -0.0676 0.7240
vn -0.6601 -0.2003 0.7240
vn -0.6084 -0.3252 0.7240
vn -0.5333 -0.4376 0.7240
vn -0.4376 -0.5333 0.7240
vn -0.3252 -0.6084 0.7240
vn -0.2003 -0.6601 0.7240
vn -0.0676 -0.6865 0.7240
vn 0.0676 -0.6865 0.7240
vn 0.2003 -0.6601 0.7240
vn 0.3252 -0.6084 0.7240
vn 0.4376 -0.5333 0.7240
vn 0.5333 -0.4376 0.7240
vn 0.6084 -0.3252 0.7240
vn 0.6601 -0.2003 0.7240
vn 0.6865 -0.0676 0.7240
vn 0.6865 0.0676 0.7240
vn 0.6601 0.2003 0.7240
vn 0.6084 0.3252 0.7240
vn 0.5333 0.4376 0.7240
vn 0.4376 0.5333 0.7240
vn 0.3252 0.6084 0.7240
vn 0.0676 0.6865 0.7240
vn 0.2003 0.6601 0.7240
vn 0.2902 0.9567 -0.0238
vn 0.0980 0.9949 -0.0238
vn -0.0980 0.9949 -0.0238
vn -0.2902 0.9567 -0.0238
vn -0.4713 0.8817 -0.0238
vn -0.6342 0.7728 -0.0238
vn -0.7728 0.6342 -0.0238
vn -0.8817 0.4713 -0.0238
vn -0.9567 0.2902 -0.0238
vn -0.9949 0.0980 -0.0238
vn -0.9949 -0.0980 -0.0238
vn -0.9567 -0.2902 -0.0238
vn -0.8817 -0.4713 -0.0238
vn -0.7728 -0.6342 -0.0238
vn -0.6342 -0.7728 -0.0238
vn -0.4713 -0.8817 -0.0238
vn -0.2902 -0.9567 -0.0238
vn -0.0980 -0.9949 -0.0238
vn 0.0980 -0.9949 -0.0238
vn 0.2902 -0.9567 -0.0238
vn 0.4713 -0.8817 -0.0238
vn 0.6342 -0.7728 -0.0238
vn 0.7728 -0.6342 -0.0238
vn 0.8817 -0.4713 -0.0238
vn 0.9567 -0.2902 -0.0238
vn 0.9949 -0.0980 -0.0238
vn 0.9949 0.0980 -0.0238
vn 0.9567 0.2902 -0.0238
vn 0.8817 0.4713 -0.0238
vn 0.7728 0.6342 -0.0238
vn 0.4713 0.8817 -0.0238
vn 0.6342 0.7728 -0.0238
usemtl Material
s off
f 221//1 126//1 125//1 220//1
f 158//2 7//2 8//2 129//2
f 192//3 3//3 1//3 191//3
f 161//4 5//4 3//4 192//4
f 222//5 127//5 126//5 221//5
f 129//6 8//6 67//6 130//6
f 131//7 68//7 69//7 132//7
f 220//8 125//8 124//8 219//8
f 191//9 1//9 10//9 190//9
f 132//10 69//10 70//10 133//10
f 219//11 124//11 123//11 218//11
f 190//12 10//12 12//12 189//12
f 133//13 70//13 71//13 134//13
f 218//14 123//14 122//14 217//14
f 189//15 12//15 14//15 188//15
f 134//16 71//16 72//16 135//16
f 217//17 122//17 121//17 216//17
f 188//18 14//18 16//18 187//18
f 135//19 72//19 73//19 136//19
f 216//20 121//20 120//20 215//20
f 187//21 16//21 18//21 186//21
f 136//22 73//22 74//22 137//22
f 215//23 120//23 119//23 214//23
f 186//24 18//24 20//24 185//24
f 137//25 74//25 75//25 138//25
f 214//26 119//26 118//26 213//26
f 185//27 20//27 22//27 184//27
f 138//28 75//28 76//28 139//28
f 213//29 118//29 117//29 212//29
f 184//30 22//30 24//30 183//30
f 139//31 76//31 77//31 140//31
f 212//32 117//32 116//32 211//32
f 183//33 24//33 26//33 182//33
f 140//34 77//34 78//34 141//34
f 211//35 116//35 115//35 210//35
f 182//36 26//36 28//36 181//36
f 141//37 78//37 79//37 142//37
f 210//38 115//38 114//38 209//38
f 181//39 28//39 30//39 180//39
f 142//40 79//40 80//40 143//40
f 209//41 114//41 113//41 208//41
f 180//42 30//42 32//42 179//42
f 143//43 80//43 81//43 144//43
f 208//44 113//44 112//44 207//44
f 179//45 32//45 34//45 178//45
f 144//46 81//46 82//46 145//46
f 207//47 112//47 111//47 206//47
f 178//48 34//48 36//48 177//48
f 145//49 82//49 83//49 146//49
f 206//50 111//50 110//50 205//50
f 177//51 36//51 38//51 176//51
f 146//52 83//52 84//52 147//52
f 205//53 110//53 109//53 204//53
f 176//54 38//54 40//54 175//54
f 147//55 84//55 85//55 148//55
f 204//56 109//56 108//56 203//56
f 175//57 40//57 42//57 174//57
f 148//58 85//58 86//58 149//58
f 203//59 108//59 107//59 202//59
f 174//60 42//60 44//60 173//60
f 149//61 86//61 87//61 150//61
f 202//62 107//62 106//62 201//62
f 173//63 44//63 46//63 172//63
f 150//64 87//64 88//64 151//64
f 201//65 106//65 105//65 200//65
f 172//66 46//66 48//66 171//66
f 151//67 88//67 89//67 152//67
f 200//68 105//68 104//68 199//68
f 171//69 48//69 50//69 170//69
f 152//70 89//70 90//70 153//70
f 199//71 104//71 103//71 198//71
f 170//72 50//72 52//72 169//72
f 153//73 90//73 91//73 154//73
f 198//74 103//74 102//74 197//74
f 169//75 52//75 54//75 168//75
f 154//76 91//76 92//76 155//76
f 197//77 102//77 101//77 196//77
f 168//78 54//78 56//78 167//78
f 155//79 92//79 93//79 156//79
f 196//80 101//80 97//80 193//80
f 167//81 56//81 58//81 166//81
f 156//82 93//82 94//82 157//82
f 193//83 97//83 99//83 194//83
f 166//84 58//84 60//84 165//84
f 157//85 94//85 95//85 159//85
f 194//86 99//86 100//86 195//86
f 165//87 60//87 62//87 162//87
f 159//88 95//88 96//88 160//88
f 195//89 100//89 98//89 224//89
f 162//90 62//90 64//90 163//90
f 160//91 96//91 7//91 158//91
f 6//92 4//92 2//92 9//92 11//92 13//92 15//92 17//92 19//92 21//92 23//92 25//92 27//92 29//92 31//92 33//92 35//92 37//92 39//92 41//92 43//92 45//92 47//92 49//92 51//92 53//92 55//92 57//92 59//92 61//92 63//92 65//92
f 163//93 64//93 66//93 164//93
f 130//94 67//94 68//94 131//94
f 224//95 98//95 128//95 223//95
f 164//96 66//96 5//96 161//96
f 1//97 3//97 5//97 66//97 64//97 62//97 60//97 58//97 56//97 54//97 52//97 50//97 48//97 46//97 44//97 42//97 40//97 38//97 36//97 34//97 32//97 30//97 28//97 26//97 24//97 22//97 20//97 18//97 16//97 14//97 12//97 10//97
f 223//98 128//98 127//98 222//98
f 2//99 130//99 131//99 9//99
f 65//100 160//100 158//100 6//100
f 63//101 159//101 160//101 65//101
f 61//102 157//102 159//102 63//102
f 59//103 156//103 157//103 61//103
f 57//104 155//104 156//104 59//104
f 55//105 154//105 155//105 57//105
f 53//106 153//106 154//106 55//106
f 51//107 152//107 153//107 53//107
f 49//108 151//108 152//108 51//108
f 47//109 150//109 151//109 49//109
f 45//110 149//110 150//110 47//110
f 43//111 148//111 149//111 45//111
f 41//112 147//112 148//112 43//112
f 39//113 146//113 147//113 41//113
f 37//114 145//114 146//114 39//114
f 35//115 144//115 145//115 37//115
f 33//116 143//116 144//116 35//116
f 31//117 142//117 143//117 33//117
f 29//118 141//118 142//118 31//118
f 27//119 140//119 141//119 29//119
f 25//120 139//120 140//120 27//120
f 23//121 138//121 139//121 25//121
f 21//122 137//122 138//122 23//122
f 19//123 136//123 137//123 21//123
f 17//124 135//124 136//124 19//124
f 15//125 134//125 135//125 17//125
f 13//126 133//126 134//126 15//126
f 11//127 132//127 133//127 13//127
f 9//128 131//128 132//128 11//128
f 4//129 129//129 130//129 2//129
f 6//130 158//130 129//130 4//130
f 100//131 164//131 161//131 98//131
f 99//132 163//132 164//132 100//132
f 97//133 162//133 163//133 99//133
f 101//134 165//134 162//134 97//134
f 102//135 166//135 165//135 101//135
f 103//136 167//136 166//136 102//136
f 104//137 168//137 167//137 103//137
f 105//138 169//138 168//138 104//138
f 106//139 170//139 169//139 105//139
f 107//140 171//140 170//140 106//140
f 108//141 172//141 171//141 107//141
f 109//142 173//142 172//142 108//142
f 110//143 174//143 173//143 109//143
f 111//144 175//144 174//144 110//144
f 112//145 176//145 175//145 111//145
f 113//146 177//146 176//146 112//146
f 114//147 178//147 177//147 113//147
f 115//148 179//148 178//148 114//148
f 116//149 180//149 179//149 115//149
f 117//150 181//150 180//150 116//150
f 118//151 182//151 181//151 117//151
f 119//152 183//152 182//152 118//152
f 120//153 184//153 183//153 119//153
f 121//154 185//154 184//154 120//154
f 122//155 186//155 185//155 121//155
f 123//156 187//156 186//156 122//156
f 124//157 188//157 187//157 123//157
f 125//158 189//158 188//158 124//158
f 126//159 190//159 189//159 125//159
f 127//160 191//160 190//160 126//160
f 98//161 161//161 192//161 128//161
f 128//162 192//162 191//162 127//162
f 8//163 223//163 222//163 67//163
f 7//164 224//164 223//164 8//164
f 96//165 195//165 224//165 7//165
f 95//166 194//166 195//166 96//166
f 94//167 193//167 194//167 95//167
f 93//168 196//168 193//168 94//168
f 92//169 197//169 196//169 93//169
f 91//170 198//170 197//170 92//170
f 90//171 199//171 198//171 91//171
f 89//172 200//172 199//172 90//172
f 88//173 201//173 200//173 89//173
f 87//174 202//174 201//174 88//174
f 86//175 203//175 202//175 87//175
f 85//176 204//176 203//176 86//176
f 84//177 205//177 204//177 85//177
f 83//178 206//178 205//178 84//178
f 82//179 207//179 206//179 83//179
f 81//180 208//180 207//180 82//180
f 80//181 209//181 208//181 81//181
f 79//182 210//182 209//182 80//182
f 78//183 211//183 210//183 79//183
f 77//184 212//184 211//184 78//184
f 76//185 213//185 212//185 77//185
f 75//186 214//186 213//186 76//186
f 74//187 215//187 214//187 75//187
f 73//188 216//188 215//188 74//188
f 72//189 217//189 216//189 73//189
f 71//190 218//190 217//190 72//190
f 70//191 219//191 218//191 71//191
f 69//192 220//192 219//192 70//192
f 67//193 222//193 221//193 68//193
f 68//194 221//194 220//194 69//194
