# Blender v2.79 (sub 0) OBJ File: 'fence.blend'
# www.blender.org
mtllib fence.mtl
o Cube
v 0.073010 -0.075186 -3.779077
v 0.073010 -0.075186 3.779077
v -0.073010 -0.075186 3.779076
v -0.073010 -0.075186 -3.779079
v 0.073010 0.075186 -3.779075
v 0.073010 0.075186 3.779079
v -0.073010 0.075186 3.779076
v -0.073010 0.075186 -3.779077
v 0.073010 2.924814 -3.779077
v 0.073010 2.924814 3.779077
v -0.073010 2.924814 3.779076
v -0.073010 2.924814 -3.779079
v 0.073010 3.075186 -3.779075
v 0.073010 3.075186 3.779079
v -0.073010 3.075186 3.779076
v -0.073010 3.075186 -3.779077
v 0.073010 3.949028 3.125203
v 0.073010 3.949028 2.921325
v 0.073010 3.949028 2.117449
v 0.073010 3.949028 1.913571
v 0.073010 3.949028 1.109695
v 0.073010 3.949028 0.905817
v 0.073010 3.949028 0.101941
v 0.073010 3.949028 -0.101937
v 0.073010 3.949028 -0.905813
v 0.073010 3.949028 -1.109691
v 0.073010 3.949028 -1.913567
v 0.073010 3.949028 -2.117445
v 0.073010 3.949028 -2.921321
v 0.073010 3.949028 -3.125199
v -0.073010 3.949028 -3.125201
v -0.073010 3.949028 -2.921324
v -0.073010 3.949028 -2.117447
v -0.073010 3.949028 -1.913570
v -0.073010 3.949028 -1.109693
v -0.073010 3.949028 -0.905817
v -0.073010 3.949028 -0.101940
v -0.073010 3.949028 0.101937
v -0.073010 3.949028 0.905814
v -0.073010 3.949028 1.109691
v -0.073010 3.949028 1.913568
v -0.073010 3.949028 2.117445
v -0.073010 3.949028 2.921321
v -0.073010 3.949028 3.125198
v 0.073010 3.798656 3.125201
v 0.073010 3.798656 2.921323
v 0.073010 3.798656 2.117447
v 0.073010 3.798656 1.913569
v 0.073010 3.798656 1.109693
v 0.073010 3.798656 0.905815
v 0.073010 3.798656 0.101939
v 0.073010 3.798656 -0.101939
v 0.073010 3.798656 -0.905815
v 0.073010 3.798656 -1.109693
v 0.073010 3.798656 -1.913569
v 0.073010 3.798656 -2.117447
v 0.073010 3.798656 -2.921323
v 0.073010 3.798656 -3.125201
v -0.073010 3.798656 -3.125202
v -0.073010 3.798656 -2.921325
v -0.073010 3.798656 -2.117448
v -0.073010 3.798656 -1.913571
v -0.073010 3.798656 -1.109694
v -0.073010 3.798656 -0.905817
v -0.073010 3.798656 -0.101940
v -0.073010 3.798656 0.101937
v -0.073010 3.798656 0.905814
v -0.073010 3.798656 1.109691
v -0.073010 3.798656 1.913568
v -0.073010 3.798656 2.117445
v -0.073010 3.798656 2.921322
v -0.073010 3.798656 3.125199
v -0.073010 3.949028 -3.779077
v -0.073010 3.949028 3.779076
v 0.073010 3.949028 3.779079
v 0.073010 3.949028 -3.779075
v -0.073010 3.798656 -3.779079
v -0.073010 3.798656 3.779076
v 0.073010 3.798656 3.779077
v 0.073010 3.798656 -3.779077
v 0.142537 -0.075186 -3.779077
v 0.142537 -0.075186 3.779077
v 0.142537 0.075186 -3.779075
v 0.142536 0.075186 3.779079
v 0.142537 2.924814 -3.779077
v 0.142537 2.924814 3.779077
v 0.142537 3.075186 -3.779075
v 0.142536 3.075186 3.779079
v 0.142536 3.949028 2.921325
v 0.142537 3.798656 2.921323
v 0.142536 3.949028 1.109695
v 0.142537 3.798656 1.109693
v 0.142536 3.949028 -0.101937
v 0.142537 3.798656 -0.101939
v 0.142537 3.949028 -1.913567
v 0.142537 3.798656 -1.913569
v 0.142537 3.949028 -3.125199
v 0.142537 3.798656 -3.125201
v 0.142536 3.949028 3.125203
v 0.142536 3.949028 1.913571
v 0.142536 3.949028 2.117449
v 0.142536 3.949028 0.905817
v 0.142536 3.949028 0.101941
v 0.142537 3.949028 -1.109691
v 0.142536 3.949028 -0.905813
v 0.142537 3.949028 -2.117445
v 0.142537 3.949028 -2.921321
v 0.142537 3.798656 3.125201
v 0.142537 3.798656 2.117447
v 0.142537 3.798656 1.913569
v 0.142537 3.798656 0.905815
v 0.142537 3.798656 0.101939
v 0.142537 3.798656 -0.905815
v 0.142537 3.798656 -1.109693
v 0.142537 3.798656 -2.117447
v 0.142537 3.798656 -2.921323
v 0.142537 3.949028 -3.779075
v 0.142537 3.798656 3.779077
v 0.142536 3.949028 3.779079
v 0.142537 3.798656 -3.779077
v 0.073010 -0.629322 3.125201
v -0.073010 -0.629322 3.125199
v 0.073010 -0.629322 1.913569
v -0.073010 -0.629322 1.913568
v 0.073010 -0.629322 0.101939
v -0.073010 -0.629322 0.101937
v 0.073010 -0.629322 -1.109693
v -0.073010 -0.629322 -1.109694
v 0.073010 -0.629322 2.921323
v 0.073010 -0.629322 2.117447
v 0.073010 -0.629322 0.905815
v 0.073010 -0.629322 1.109693
v 0.073010 -0.629322 -0.101939
v 0.073010 -0.629322 -0.905815
v 0.073010 -0.629322 -2.117447
v 0.073010 -0.629322 -1.913569
v -0.073010 -0.629322 2.921322
v -0.073010 -0.629322 1.109691
v -0.073010 -0.629322 -0.101940
v -0.073010 -0.629322 -1.913571
v 0.073010 -0.629322 -2.921323
v -0.073010 -0.629322 -2.921325
v 0.073010 -0.629322 -3.125201
v -0.073010 -0.629322 -0.905817
v -0.073010 -0.629322 2.117445
v -0.073010 -0.629322 -3.125202
v -0.073010 -0.629322 -2.117448
v -0.073010 -0.629322 0.905814
v -0.073010 4.302077 2.117445
v 0.073010 4.302077 2.117449
v -0.073010 4.302077 0.905814
v 0.073010 4.302077 0.905817
v -0.073010 4.302077 -0.905817
v 0.073010 4.302077 -0.905813
v -0.073010 4.302077 -2.117447
v 0.073010 4.302077 -2.117445
v 0.073010 4.302077 2.921325
v 0.073010 4.302077 3.125203
v 0.073010 4.302077 1.913571
v 0.073010 4.302077 1.109695
v 0.073010 4.302077 -0.101937
v 0.073010 4.302077 0.101941
v 0.073010 4.302077 -1.109691
v 0.073010 4.302077 -1.913567
v 0.073010 4.302077 -3.125199
v 0.073010 4.302077 -2.921321
v -0.073010 4.302077 -2.921324
v -0.073010 4.302077 -3.125201
v -0.073010 4.302077 -1.913570
v -0.073010 4.302077 -1.109693
v -0.073010 4.302077 0.101937
v -0.073010 4.302077 -0.101940
v -0.073010 4.302077 1.109691
v -0.073010 4.302077 1.913568
v -0.073010 4.302077 3.125198
v -0.073010 4.302077 2.921321
v -0.000000 4.302077 2.117447
v -0.000000 4.302077 0.905815
v -0.000000 4.302077 -0.905815
v -0.000000 4.302077 -2.117446
v 0.073010 4.302077 3.023264
v 0.073010 4.302077 2.015510
v 0.073010 4.302077 1.007756
v 0.073010 4.302077 0.000002
v 0.073010 4.302077 -1.007752
v 0.073010 4.302077 -2.015506
v 0.073010 4.302077 -3.023260
v -0.073010 4.302077 -3.023262
v -0.073010 4.302077 -2.015509
v -0.073010 4.302077 -1.007755
v -0.073010 4.302077 -0.000001
v -0.073010 4.302077 1.007752
v -0.073010 4.302077 2.015506
v -0.000000 4.302077 3.125201
v -0.000000 4.302077 1.913569
v -0.000000 4.302077 0.101939
v -0.000000 4.302077 -1.109692
v -0.000000 4.302077 -2.921322
v -0.073010 4.302077 3.023260
v -0.000000 4.302077 -0.101938
v -0.000000 4.302077 1.109693
v -0.000000 4.302077 2.921323
v -0.000000 4.302077 -1.913568
v -0.000000 4.302077 -3.125200
v -0.000000 4.557279 0.000000
v -0.000000 4.557279 3.023262
v -0.000000 4.557279 -3.023261
v -0.000000 4.557279 -2.015507
v -0.000000 4.557279 -1.007753
v -0.000000 4.557279 1.007754
v -0.000000 4.557279 2.015508
v -0.137181 -0.075186 3.779076
v -0.137181 -0.075186 -3.779079
v -0.137181 0.075186 3.779076
v -0.137181 0.075186 -3.779077
v -0.137181 2.924814 3.779076
v -0.137181 2.924814 -3.779079
v -0.137181 3.075186 3.779076
v -0.137181 3.075186 -3.779077
v -0.137181 3.949028 -3.125201
v -0.137181 3.798656 -3.125202
v -0.137181 3.949028 -1.109693
v -0.137181 3.798656 -1.109694
v -0.137181 3.949028 0.905814
v -0.137181 3.798656 0.905814
v -0.137181 3.949028 -2.921324
v -0.137181 3.949028 -1.913570
v -0.137181 3.949028 -2.117447
v -0.137181 3.949028 -0.905817
v -0.137181 3.949028 0.101937
v -0.137181 3.949028 -0.101940
v -0.137181 3.949028 1.109691
v -0.137181 3.949028 2.117445
v -0.137181 3.949028 1.913568
v -0.137181 3.949028 3.779076
v -0.137181 3.949028 3.125198
v -0.137181 3.798656 -2.921325
v -0.137181 3.798656 -0.905817
v -0.137181 3.798656 1.109691
v -0.137181 3.949028 2.921321
v -0.137181 3.798656 2.921322
v -0.137181 3.798656 -2.117448
v -0.137181 3.798656 -0.101940
v -0.137181 3.798656 1.913568
v -0.137181 3.798656 3.125199
v -0.137181 3.798656 0.101937
v -0.137181 3.798656 2.117445
v -0.137181 3.798656 3.779076
v -0.137181 3.798656 -3.779079
v -0.137181 3.798656 -1.913571
v -0.137181 3.949028 -3.779077
v 0.073013 3.949031 -4.115437
v -0.073006 3.949031 -4.115439
v 0.073013 3.798660 -4.115439
v -0.073006 3.798660 -4.115441
v 0.176809 3.798656 -3.779075
v 0.176809 3.949028 -3.779073
v 0.176813 3.798660 -4.115437
v 0.176813 3.949031 -4.115435
v -0.174392 3.798656 -3.779081
v -0.174392 3.949028 -3.779080
v -0.174388 3.798660 -4.115443
v -0.174388 3.949031 -4.115441
v 0.073010 4.451229 -3.779070
v -0.073010 4.451229 -3.779072
v 0.073013 4.451233 -4.115432
v -0.073006 4.451233 -4.115434
v 0.176809 4.451229 -3.779068
v 0.176813 4.451233 -4.115429
v -0.174388 4.451233 -4.115436
v -0.174392 4.451229 -3.779074
v 0.073010 4.593628 -3.779069
v -0.073010 4.593628 -3.779071
v 0.073013 4.593632 -4.115431
v -0.073006 4.593632 -4.115433
v 0.176809 4.593628 -3.779067
v 0.176813 4.593632 -4.115428
v -0.174388 4.593632 -4.115435
v -0.174392 4.593628 -3.779073
v 0.237129 4.451229 -3.779067
v 0.237133 4.451233 -4.115429
v 0.237129 4.548450 -3.779066
v 0.237133 4.548454 -4.115428
v 0.073009 4.451229 -3.714312
v -0.073011 4.451229 -3.714314
v 0.176809 4.451229 -3.714309
v -0.174392 4.451229 -3.714316
v 0.073009 4.548450 -3.714311
v -0.073011 4.548450 -3.714313
v 0.176809 4.548450 -3.714309
v -0.174392 4.548450 -3.714315
v 0.237128 4.548450 -3.714308
v 0.237128 4.451229 -3.714309
v 0.073014 4.451233 -4.174651
v -0.073005 4.451233 -4.174653
v 0.073014 4.548454 -4.174650
v -0.073005 4.548454 -4.174652
v 0.176814 4.451233 -4.174649
v -0.174387 4.451233 -4.174655
v 0.176814 4.548454 -4.174648
v -0.174387 4.548454 -4.174654
v 0.237134 4.548454 -4.174647
v 0.237134 4.451233 -4.174648
v -0.230574 4.451233 -4.115437
v -0.230578 4.451229 -3.779075
v -0.230574 4.548454 -4.115436
v -0.230578 4.548450 -3.779074
v -0.230579 4.548450 -3.714316
v -0.230579 4.451229 -3.714317
v -0.230573 4.451233 -4.174656
v -0.230573 4.548454 -4.174655
v 0.073010 -0.629324 -3.779130
v -0.073010 -0.629324 -3.779132
v 0.073013 -0.629320 -4.115492
v -0.073006 -0.629320 -4.115494
v 0.176809 -0.629324 -3.779128
v 0.176813 -0.629320 -4.115489
v -0.174388 -0.629320 -4.115496
v -0.174392 -0.629324 -3.779134
vn 0.0000 -1.0000 0.0000
vn 0.0000 1.0000 0.0000
vn 0.0000 0.0000 -1.0000
vn -1.0000 0.0000 0.0000
vn -0.0000 0.0000 1.0000
vn 1.0000 0.0000 0.0000
vn -0.7371 0.4218 0.5279
vn 0.7371 0.4218 0.5280
vn 0.7371 0.4218 -0.5279
vn -0.7371 0.4218 -0.5280
vn 0.3303 0.8819 -0.3364
vn -0.0000 0.8201 0.5722
vn -0.3549 0.8827 0.3079
vn 0.5995 0.8004 0.0000
vn 0.3334 0.8902 0.3105
vn -0.6266 0.7793 0.0000
vn 0.0000 0.7951 -0.6065
vn -0.3516 0.8747 -0.3336
usemtl Material
s off
f 1//1 2//1 3//1 4//1
f 5//2 8//2 7//2 6//2
f 45//1 46//1 90//1 108//1
f 42//2 41//2 234//2 233//2
f 5//3 1//3 4//3 8//3
f 9//1 10//1 11//1 12//1
f 13//2 16//2 15//2 14//2
f 2//1 1//1 81//1 82//1
f 62//1 63//1 223//1 250//1
f 13//3 9//3 12//3 16//3
f 18//2 17//2 99//2 89//2
f 10//1 9//1 85//1 86//1
f 56//1 57//1 116//1 115//1
f 55//1 56//1 115//1 96//1
f 19//2 42//2 43//2 18//2
f 37//4 38//4 171//4 191//4 172//4
f 24//3 37//3 172//3 200//3 161//3
f 23//2 38//2 39//2 22//2
f 25//2 36//2 37//2 24//2
f 35//4 36//4 153//4 190//4 170//4
f 28//3 33//3 155//3 180//3 156//3
f 29//2 32//2 33//2 28//2
f 76//2 73//2 31//2 30//2
f 35//2 34//2 227//2 222//2
f 66//1 67//1 225//1 246//1
f 7//2 8//2 215//2 214//2
f 40//2 39//2 224//2 232//2
f 61//1 62//1 250//1 242//1
f 76//2 30//2 97//2 117//2
f 54//1 55//1 96//1 114//1
f 65//3 52//3 133//3 139//3
f 47//1 46//1 71//1 70//1
f 60//4 59//4 146//4 142//4
f 49//1 48//1 69//1 68//1
f 45//5 72//5 122//5 121//5
f 51//1 50//1 67//1 66//1
f 49//5 68//5 138//5 132//5
f 53//1 52//1 65//1 64//1
f 54//6 53//6 134//6 127//6
f 55//1 54//1 63//1 62//1
f 58//6 57//6 141//6 143//6
f 57//1 56//1 61//1 60//1
f 71//3 46//3 129//3 137//3
f 58//1 80//1 120//1 98//1
f 33//4 34//4 169//4 189//4 155//4
f 33//2 32//2 226//2 228//2
f 29//2 28//2 106//2 107//2
f 63//1 64//1 238//1 223//1
f 38//2 37//2 231//2 230//2
f 59//1 60//1 237//1 221//1
f 27//2 34//2 35//2 26//2
f 53//1 54//1 114//1 113//1
f 15//2 16//2 219//2 218//2
f 80//1 58//1 59//1 77//1
f 257//6 259//6 269//6 268//6
f 60//1 61//1 242//1 237//1
f 57//1 58//1 98//1 116//1
f 17//2 44//2 74//2 75//2
f 45//1 79//1 78//1 72//1
f 5//2 6//2 84//2 83//2
f 79//1 45//1 108//1 118//1
f 27//2 26//2 104//2 95//2
f 52//1 53//1 113//1 94//1
f 17//2 75//2 119//2 99//2
f 36//5 25//5 154//5 179//5 153//5
f 36//2 35//2 222//2 229//2
f 21//2 40//2 41//2 20//2
f 73//3 77//3 249//3 251//3
f 32//5 29//5 166//5 198//5 167//5
f 34//2 33//2 228//2 227//2
f 8//3 4//3 213//3 215//3
f 81//6 83//6 84//6 82//6
f 85//6 87//6 88//6 86//6
f 96//6 95//6 104//6 114//6
f 115//6 106//6 95//6 96//6
f 98//6 97//6 107//6 116//6
f 120//6 117//6 97//6 98//6
f 110//6 100//6 101//6 109//6
f 112//6 103//6 102//6 111//6
f 90//6 89//6 99//6 108//6
f 111//6 102//6 91//6 92//6
f 109//6 101//6 89//6 90//6
f 108//6 99//6 119//6 118//6
f 114//6 104//6 105//6 113//6
f 92//6 91//6 100//6 110//6
f 94//6 93//6 103//6 112//6
f 116//6 107//6 106//6 115//6
f 113//6 105//6 93//6 94//6
f 9//3 13//3 87//3 85//3
f 20//2 19//2 101//2 100//2
f 46//1 47//1 109//1 90//1
f 22//2 21//2 91//2 102//2
f 1//3 5//3 83//3 81//3
f 47//1 48//1 110//1 109//1
f 24//2 23//2 103//2 93//2
f 48//1 49//1 92//1 110//1
f 19//2 18//2 89//2 101//2
f 26//2 25//2 105//2 104//2
f 49//1 50//1 111//1 92//1
f 21//2 20//2 100//2 91//2
f 28//2 27//2 95//2 106//2
f 50//1 51//1 112//1 111//1
f 23//2 22//2 102//2 103//2
f 80//3 76//3 117//3 120//3
f 30//2 29//2 107//2 97//2
f 51//1 52//1 94//1 112//1
f 25//2 24//2 93//2 105//2
f 13//2 14//2 88//2 87//2
f 129//1 121//1 122//1 137//1
f 123//1 130//1 145//1 124//1
f 131//1 132//1 138//1 148//1
f 133//1 125//1 126//1 139//1
f 127//1 134//1 144//1 128//1
f 135//1 136//1 140//1 147//1
f 143//1 141//1 142//1 146//1
f 64//4 63//4 128//4 144//4
f 69//3 48//3 123//3 124//3
f 53//5 64//5 144//5 134//5
f 56//6 55//6 136//6 135//6
f 62//4 61//4 147//4 140//4
f 55//5 62//5 140//5 136//5
f 51//5 66//5 126//5 125//5
f 67//3 50//3 131//3 148//3
f 47//5 70//5 145//5 130//5
f 57//5 60//5 142//5 141//5
f 63//3 54//3 127//3 128//3
f 70//4 69//4 124//4 145//4
f 66//4 65//4 139//4 126//4
f 46//6 45//6 121//6 129//6
f 68//4 67//4 148//4 138//4
f 48//6 47//6 130//6 123//6
f 59//3 58//3 143//3 146//3
f 61//3 56//3 135//3 147//3
f 72//4 71//4 137//4 122//4
f 50//6 49//6 132//6 131//6
f 52//6 51//6 125//6 133//6
f 211//7 193//7 149//7 177//7
f 210//7 192//7 173//7 201//7
f 209//7 190//7 153//7 179//7
f 208//7 189//7 169//7 203//7
f 207//7 188//7 167//7 198//7
f 206//7 199//7 175//7 194//7
f 205//7 191//7 171//7 196//7
f 39//4 40//4 173//4 192//4 151//4
f 34//5 27//5 164//5 203//5 169//5
f 41//4 42//4 149//4 193//4 174//4
f 40//5 21//5 160//5 201//5 173//5
f 30//3 31//3 168//3 204//3 165//3
f 17//6 18//6 157//6 181//6 158//6
f 19//6 20//6 159//6 182//6 150//6
f 21//6 22//6 152//6 183//6 160//6
f 18//3 43//3 176//3 202//3 157//3
f 23//6 24//6 161//6 184//6 162//6
f 44//5 17//5 158//5 194//5 175//5
f 43//4 44//4 175//4 199//4 176//4
f 25//6 26//6 163//6 185//6 154//6
f 20//3 41//3 174//3 195//3 159//3
f 27//6 28//6 156//6 186//6 164//6
f 38//5 23//5 162//5 196//5 171//5
f 42//5 19//5 150//5 177//5 149//5
f 29//6 30//6 165//6 187//6 166//6
f 26//3 35//3 170//3 197//3 163//3
f 22//3 39//3 151//3 178//3 152//3
f 31//4 32//4 167//4 188//4 168//4
f 184//8 205//8 196//8 162//8
f 161//9 200//9 205//9 184//9
f 200//10 172//10 191//10 205//10
f 181//8 206//8 194//8 158//8
f 157//9 202//9 206//9 181//9
f 202//10 176//10 199//10 206//10
f 187//8 207//8 198//8 166//8
f 165//9 204//9 207//9 187//9
f 204//10 168//10 188//10 207//10
f 186//8 208//8 203//8 164//8
f 156//9 180//9 208//9 186//9
f 180//10 155//10 189//10 208//10
f 185//8 209//8 179//8 154//8
f 163//9 197//9 209//9 185//9
f 197//10 170//10 190//10 209//10
f 183//8 210//8 201//8 160//8
f 152//9 178//9 210//9 183//9
f 178//10 151//10 192//10 210//10
f 182//8 211//8 177//8 150//8
f 159//9 195//9 211//9 182//9
f 195//10 174//10 193//10 211//10
f 212//4 214//4 215//4 213//4
f 216//4 218//4 219//4 217//4
f 242//4 228//4 226//4 237//4
f 238//4 229//4 222//4 223//4
f 225//4 224//4 230//4 246//4
f 247//4 233//4 234//4 244//4
f 248//4 235//4 236//4 245//4
f 241//4 240//4 233//4 247//4
f 223//4 222//4 227//4 250//4
f 239//4 232//4 224//4 225//4
f 244//4 234//4 232//4 239//4
f 243//4 231//4 229//4 238//4
f 221//4 220//4 251//4 249//4
f 237//4 226//4 220//4 221//4
f 246//4 230//4 231//4 243//4
f 250//4 227//4 228//4 242//4
f 245//4 236//4 240//4 241//4
f 69//1 70//1 247//1 244//1
f 37//2 36//2 229//2 231//2
f 64//1 65//1 243//1 238//1
f 74//2 44//2 236//2 235//2
f 72//1 78//1 248//1 245//1
f 39//2 38//2 230//2 224//2
f 65//1 66//1 246//1 243//1
f 41//2 40//2 232//2 234//2
f 67//1 68//1 239//1 225//1
f 43//2 42//2 233//2 240//2
f 68//1 69//1 244//1 239//1
f 77//1 59//1 221//1 249//1
f 44//2 43//2 240//2 236//2
f 70//1 71//1 241//1 247//1
f 12//1 11//1 216//1 217//1
f 71//1 72//1 245//1 241//1
f 4//1 3//1 212//1 213//1
f 31//2 73//2 251//2 220//2
f 16//3 12//3 217//3 219//3
f 32//2 31//2 220//2 226//2
f 261//5 73//5 265//5 271//5
f 252//3 254//3 255//3 253//3
f 258//6 256//6 316//6 317//6
f 255//3 254//3 314//3 315//3
f 257//6 256//6 258//6 259//6
f 76//5 80//5 256//5 257//5
f 254//3 252//3 259//3 258//3
f 254//3 258//3 317//3 314//3
f 259//3 252//3 266//3 269//3
f 260//4 261//4 263//4 262//4
f 253//3 255//3 262//3 263//3
f 77//5 73//5 261//5 260//5
f 277//11 283//11 302//11 300//11
f 267//1 270//1 299//1 295//1
f 266//1 267//1 295//1 294//1
f 73//5 76//5 264//5 265//5
f 76//5 257//5 268//5 264//5
f 253//3 263//3 270//3 267//3
f 252//3 253//3 267//3 266//3
f 263//4 261//4 271//4 270//4
f 273//2 272//2 274//2 275//2
f 273//2 275//2 278//2 279//2
f 274//2 272//2 276//2 277//2
f 264//1 268//1 286//1 284//1
f 273//12 279//12 291//12 289//12
f 280//6 282//6 292//6 293//6
f 291//13 279//13 307//13 308//13
f 276//12 272//12 288//12 290//12
f 280//6 281//6 283//6 282//6
f 268//1 269//1 281//1 280//1
f 277//14 276//14 282//14 283//14
f 281//1 269//1 298//1 303//1
f 290//5 286//5 293//5 292//5
f 285//5 284//5 288//5 289//5
f 287//5 285//5 289//5 291//5
f 284//5 286//5 290//5 288//5
f 268//1 280//1 293//1 286//1
f 271//1 265//1 285//1 287//1
f 272//12 273//12 289//12 288//12
f 282//15 276//15 290//15 292//15
f 265//1 264//1 284//1 285//1
f 279//16 278//16 306//16 307//16
f 298//3 294//3 296//3 300//3
f 295//3 299//3 301//3 297//3
f 294//3 295//3 297//3 296//3
f 298//3 300//3 302//3 303//3
f 274//17 277//17 300//17 296//17
f 278//18 301//18 311//18 306//18
f 269//1 266//1 294//1 298//1
f 275//17 274//17 296//17 297//17
f 283//6 281//6 303//6 302//6
f 278//17 275//17 297//17 301//17
f 304//4 305//4 307//4 306//4
f 307//4 305//4 309//4 308//4
f 304//4 306//4 311//4 310//4
f 299//1 270//1 304//1 310//1
f 271//1 287//1 309//1 305//1
f 301//3 299//3 310//3 311//3
f 270//1 271//1 305//1 304//1
f 287//5 291//5 308//5 309//5
f 315//1 313//1 319//1 318//1
f 312//1 313//1 315//1 314//1
f 312//1 314//1 317//1 316//1
f 77//5 260//5 319//5 313//5
f 80//5 77//5 313//5 312//5
f 256//5 80//5 312//5 316//5
f 262//3 255//3 315//3 318//3
f 260//4 262//4 318//4 319//4
